{"title":"Lekar Hum Deewana Dil (2014) [1CD] PreDVD Rip Xvid Mp3 TeamTNT E","uid":10511685,"size":730276527,"categoryP":"video","categoryS":"movies","magnet":"?xt=urn:btih:95a61407aa89d14fc14c0e073efba9fcf58117fa&amp;dn=Lekar+Hum+Deewana+Dil+%282014%29+%5B1CD%5D+PreDVD+Rip+Xvid+Mp3+TeamTNT+E&amp;tr=udp%3A%2F%2Ftracker.openbittorrent.com%3A80&amp;tr=udp%3A%2F%2Fopen.demonii.com%3A1337&amp;tr=udp%3A%2F%2Ftracker.coppersurfer.tk%3A6969&amp;tr=udp%3A%2F%2Fexodus.desync.com%3A6969","seeders":3,"leechers":0,"uploader":"inovai","files":19,"time":1404852544,"description":"Cover image:- http://img.primetimeshow.in/share.php?id=4BED_53BC3B90\n\n\n\nScreenshots\n &lt;a href=&quot;\nhttp://img.primetimeshow.in/share.php?id=54B4_53BC3657&quot; rel=&quot;nofollow&quot; target=&quot;_NEW&quot;&gt;\nhttp://img.primetimeshow.in/share.php?id=54B4_53BC3657&lt;/a&gt;\n &lt;a href=&quot;\nhttp://img.primetimeshow.in/share.php?id=5CB2_53BC3657&quot; rel=&quot;nofollow&quot; target=&quot;_NEW&quot;&gt;\nhttp://img.primetimeshow.in/share.php?id=5CB2_53BC3657&lt;/a&gt;\n &lt;a href=&quot;\nhttp://img.primetimeshow.in/share.php?id=A658_53BC3791&quot; rel=&quot;nofollow&quot; target=&quot;_NEW&quot;&gt;\nhttp://img.primetimeshow.in/share.php?id=A658_53BC3791&lt;/a&gt;\n &lt;a href=&quot;\nhttp://img.primetimeshow.in/share.php?id=3110_53BC3791&quot; rel=&quot;nofollow&quot; target=&quot;_NEW&quot;&gt;\nhttp://img.primetimeshow.in/share.php?id=3110_53BC3791&lt;/a&gt;\n &lt;a href=&quot;\nhttp://img.primetimeshow.in/share.php?id=8648_53BC3791&quot; rel=&quot;nofollow&quot; target=&quot;_NEW&quot;&gt;\nhttp://img.primetimeshow.in/share.php?id=8648_53BC3791&lt;/a&gt;\n &lt;a href=&quot;\nhttp://img.primetimeshow.in/share.php?id=049E_53BC3791&quot; rel=&quot;nofollow&quot; target=&quot;_NEW&quot;&gt;\nhttp://img.primetimeshow.in/share.php?id=049E_53BC3791&lt;/a&gt;\n &lt;a href=&quot;\nhttp://img.primetimeshow.in/share.php?id=D114_53BC3791&quot; rel=&quot;nofollow&quot; target=&quot;_NEW&quot;&gt;\nhttp://img.primetimeshow.in/share.php?id=D114_53BC3791&lt;/a&gt;\n\n\nGeneral Info\nComplete name : Lekar Hum Deewana Dil (2014) [1CD] PreDVD Rip Xvid Mp3 TeamTNT Exclusive.avi\nFormat : AVI\nFormat/Info : Audio Video Interleave\nFile size : 692 MiB\nDuration : 2h 0mn\nOverall bit rate : 801 Kbps\n\nVideo\nID : 0\nFormat : MPEG-4 Visual\nFormat profile : Advanced Simple@L5\nFormat settings, BVOP : 2\nFormat settings, QPel : No\nFormat settings, GMC : No warppoints\nFormat settings, Matrix : Default (H.263)\nCodec ID : XVID\nCodec ID/Hint : XviD\nDuration : 2h 0mn\nBit rate : 710 Kbps\nWidth : 624 pixels\nHeight : 288 pixels\nDisplay aspect ratio : 2.2:1\nFrame rate : 29.970 fps\nColor space : YUV\nChroma subsampling : 4:2:0\nBit depth : 8 bits\nScan type : Progressive\nCompression mode : Lossy\nBits/(Pixel*Frame) : 0.132\nStream size : 613 MiB (89%)\nWriting library : XviD 1.2.1 (UTC 2008-12-04)\n\nAudio\nID : 1\nFormat : MPEG Audio\nFormat version : Version 1\nFormat profile : Layer 3\nMode : Joint stereo\nMode extension : MS Stereo\nCodec ID : 55\nCodec ID/Hint : MP3\nDuration : 2h 0mn\nSource duration : 2h 0mn\nBit rate mode : Constant\nBit rate : 80.0 Kbps\nChannel(s) : 2 channels\nSampling rate : 32.0 KHz\nCompression mode : Lossy\nStream size : 69.1 MiB (10%)\nAlignment : Aligned on interleaves\nInterleave, duration : 36 ms (1.08 video frame)\n\nThanks to team TNT\n\nSeed Please after download!!","torrent":{"xt":"urn:btih:95a61407aa89d14fc14c0e073efba9fcf58117fa","amp;dn":"Lekar+Hum+Deewana+Dil+%282014%29+%5B1CD%5D+PreDVD+Rip+Xvid+Mp3+TeamTNT+E","amp;tr":["udp%3A%2F%2Ftracker.openbittorrent.com%3A80","udp%3A%2F%2Fopen.demonii.com%3A1337","udp%3A%2F%2Ftracker.coppersurfer.tk%3A6969","udp%3A%2F%2Fexodus.desync.com%3A6969"],"infoHash":"95a61407aa89d14fc14c0e073efba9fcf58117fa","infoHashBuffer":{"type":"Buffer","data":[149,166,20,7,170,137,209,79,193,76,14,7,62,251,169,252,245,129,23,250]},"announce":[],"urlList":[]}}